<svg width="24" height="25" viewBox="0 0 24 25" fill="none" xmlns="http://www.w3.org/2000/svg">
<g clip-path="url(#clip0_175_975)">
<path fill-rule="evenodd" clip-rule="evenodd" d="M7.45391 6.50206C7.46897 6.50069 7.48408 6.5 7.4992 6.5H9.26729C10.0362 6.5 10.7852 7.04316 10.8699 7.88997C10.9185 8.37624 11.0639 8.82033 11.2308 9.32134C11.4556 9.9316 11.3141 10.5864 10.8303 11.009L10.4392 11.4329C11.096 12.4914 11.9989 13.3964 13.0556 14.0556L13.4997 13.6113C13.5103 13.6007 13.5215 13.5905 13.5331 13.5808C13.9667 13.2193 14.5956 13.0313 15.1895 13.2753C15.6863 13.4409 16.1276 13.5848 16.6105 13.6331C17.4573 13.7179 18 14.4675 18 15.2362V16.8945C18 17.7785 17.279 18.5 16.3949 18.5H16.2854C16.2693 18.5 16.2523 18.4992 16.2362 18.4977C14.4364 18.3234 12.7591 17.6853 11.2632 16.7077C9.87604 15.8393 8.66408 14.6269 7.79616 13.2391C6.81899 11.7427 6.18114 10.0647 6.00697 8.26422L6.00669 8.26133C5.92753 7.39023 6.55935 6.58341 7.45391 6.50206ZM7.52545 7.5C7.21396 7.53897 6.97247 7.83197 7.00248 8.16957C7.15989 9.79386 7.73647 11.3199 8.63603 12.6963L8.64163 12.7049C9.4302 13.9671 10.5361 15.0736 11.7977 15.8625L11.8064 15.8679C13.176 16.7638 14.6936 17.3395 16.3089 17.5H16.3943C16.7257 17.5 17 17.2266 17 16.8945V15.2362C17 14.8994 16.7691 14.654 16.5109 14.6282C15.9026 14.5673 15.3605 14.3865 14.875 14.2246L14.8554 14.218C14.8423 14.2137 14.8293 14.2087 14.8166 14.2033C14.6472 14.1306 14.4091 14.1604 14.1892 14.336L13.4886 15.0369C13.3303 15.1953 13.086 15.2291 12.8906 15.1196C11.4288 14.3007 10.2021 13.0734 9.38353 11.6111C9.27782 11.4222 9.3056 11.1868 9.45235 11.0278L10.1154 10.3092C10.1302 10.2932 10.146 10.2781 10.1627 10.2642C10.3174 10.1352 10.3885 9.92312 10.2909 9.66293C10.2888 9.65716 10.2867 9.65134 10.2848 9.64549L10.2782 9.62589C10.1164 9.14021 9.93565 8.59788 9.87483 7.98943C9.84897 7.73071 9.60349 7.5 9.26729 7.5H7.52545Z" fill="black"/>
</g>
<defs>
<clipPath id="clip0_175_975">
<rect width="24" height="24" fill="white" transform="translate(0 0.5)"/>
</clipPath>
</defs>
</svg>
