<svg width="24" height="25" viewBox="0 0 24 25" fill="none" xmlns="http://www.w3.org/2000/svg">
<g clip-path="url(#clip0_175_385)">
<path fill-rule="evenodd" clip-rule="evenodd" d="M14 8.5C14 9.60457 13.1046 10.5 12 10.5C10.8954 10.5 10 9.60457 10 8.5C10 7.39543 10.8954 6.5 12 6.5C13.1046 6.5 14 7.39543 14 8.5ZM15 8.5C15 10.1568 13.6569 11.5 12 11.5C10.3431 11.5 9 10.1568 9 8.5C9 6.84315 10.3431 5.5 12 5.5C13.6569 5.5 15 6.84315 15 8.5ZM12 12.5C9.23858 12.5 7 14.7386 7 17.5V19.5H8V17.5C8 15.2909 9.79086 13.5 12 13.5C14.2091 13.5 16 15.2909 16 17.5V19.5H17V17.5C17 14.7386 14.7614 12.5 12 12.5Z" fill="white"/>
</g>
<defs>
<clipPath id="clip0_175_385">
<rect width="24" height="24" fill="white" transform="translate(0 0.5)"/>
</clipPath>
</defs>
</svg>
