<svg width="24" height="24" viewBox="0 0 24 24" fill="none" xmlns="http://www.w3.org/2000/svg">
<g clip-path="url(#clip0_250_316)">
<path d="M15.7364 5.00291L14.0574 5C12.1711 5 10.9521 6.35233 10.9521 8.44542V10.034H9.264C9.11813 10.034 9 10.1619 9 10.3196V12.6213C9 12.779 9.11826 12.9067 9.264 12.9067H10.9521V18.7145C10.9521 18.8723 11.0703 19 11.2161 19H13.4187C13.5646 19 13.6827 18.8721 13.6827 18.7145V12.9067H15.6565C15.8024 12.9067 15.9205 12.779 15.9205 12.6213L15.9213 10.3196C15.9213 10.2439 15.8935 10.1713 15.844 10.1177C15.7946 10.0641 15.7272 10.034 15.6572 10.034H13.6827V8.68734C13.6827 8.04008 13.8253 7.7115 14.6051 7.7115L15.7361 7.71107C15.8819 7.71107 16 7.58319 16 7.4256V5.28838C16 5.13094 15.882 5.0032 15.7364 5.00291Z" fill="black"/>
</g>
<defs>
<clipPath id="clip0_250_316">
<rect width="24" height="24" fill="white"/>
</clipPath>
</defs>
</svg>
