<svg width="24" height="24" viewBox="0 0 24 24" fill="none" xmlns="http://www.w3.org/2000/svg">
<g clip-path="url(#clip0_250_322)">
<path fill-rule="evenodd" clip-rule="evenodd" d="M8.5 6C7.11929 6 6 7.11929 6 8.5V15.5C6 16.8807 7.11929 18 8.5 18H15.5C16.8807 18 18 16.8807 18 15.5V8.5C18 7.11929 16.8807 6 15.5 6H8.5ZM5 8.5C5 6.567 6.567 5 8.5 5H15.5C17.433 5 19 6.567 19 8.5V15.5C19 17.433 17.433 19 15.5 19H8.5C6.567 19 5 17.433 5 15.5V8.5ZM16.5 8C16.5 8.27614 16.2761 8.5 16 8.5C15.7239 8.5 15.5 8.27614 15.5 8C15.5 7.72386 15.7239 7.5 16 7.5C16.2761 7.5 16.5 7.72386 16.5 8ZM14.5 12C14.5 13.3807 13.3807 14.5 12 14.5C10.6193 14.5 9.5 13.3807 9.5 12C9.5 10.6193 10.6193 9.5 12 9.5C13.3807 9.5 14.5 10.6193 14.5 12ZM15.5 12C15.5 13.933 13.933 15.5 12 15.5C10.067 15.5 8.5 13.933 8.5 12C8.5 10.067 10.067 8.5 12 8.5C13.933 8.5 15.5 10.067 15.5 12Z" fill="black"/>
</g>
<defs>
<clipPath id="clip0_250_322">
<rect width="24" height="24" fill="white"/>
</clipPath>
</defs>
</svg>
