<svg width="20" height="20" viewBox="0 0 20 20" fill="none" xmlns="http://www.w3.org/2000/svg">
<path d="M10 3C7.23958 3 5 5.06611 5 7.61081C5 10.5388 8.33333 15.1789 9.55729 16.7816C9.6081 16.8493 9.67469 16.9043 9.75162 16.9423C9.82856 16.9802 9.91367 17 10 17C10.0863 17 10.1714 16.9802 10.2484 16.9423C10.3253 16.9043 10.3919 16.8493 10.4427 16.7816C11.6667 15.1796 15 10.5412 15 7.61081C15 5.06611 12.7604 3 10 3Z" stroke="black" stroke-linecap="round" stroke-linejoin="round"/>
<path d="M10 10C10.5523 10 11 9.10457 11 8C11 6.89543 10.5523 6 10 6C9.44772 6 9 6.89543 9 8C9 9.10457 9.44772 10 10 10Z" stroke="black" stroke-linecap="round" stroke-linejoin="round"/>
</svg>
