<svg width="16" height="16" viewBox="0 0 16 16" fill="none" xmlns="http://www.w3.org/2000/svg">
<path d="M11.6675 9.16438L9.6675 8.16438C9.60842 8.135 9.54265 8.12172 9.47681 8.12589C9.41096 8.13006 9.34739 8.15153 9.2925 8.18812L8.3125 8.84125C7.81639 8.58724 7.41276 8.1836 7.15875 7.6875L7.8125 6.70813C7.84909 6.65323 7.87056 6.58966 7.87473 6.52381C7.8789 6.45797 7.86562 6.3922 7.83625 6.33313L6.83625 4.33313C6.80515 4.27055 6.7572 4.21791 6.69778 4.18114C6.63837 4.14436 6.56987 4.12492 6.5 4.125C5.87011 4.125 5.26602 4.37522 4.82062 4.82062C4.37522 5.26602 4.125 5.87011 4.125 6.5C4.12665 7.92503 4.69347 9.29122 5.70112 10.2989C6.70877 11.3065 8.07496 11.8733 9.5 11.875C10.1299 11.875 10.734 11.6248 11.1794 11.1794C11.6248 10.734 11.875 10.1299 11.875 9.5C11.875 9.4303 11.8556 9.36197 11.819 9.30269C11.7823 9.2434 11.7299 9.19551 11.6675 9.16438ZM9.5 11.125C8.27383 11.1235 7.0983 10.6358 6.23127 9.76872C5.36424 8.90169 4.87648 7.72617 4.875 6.5C4.87503 6.10781 5.0169 5.72887 5.27444 5.43308C5.53197 5.13729 5.88779 4.94463 6.27625 4.89063L7.0675 6.47312L6.41812 7.44688C6.384 7.49823 6.36307 7.55721 6.35718 7.61859C6.3513 7.67996 6.36063 7.74184 6.38437 7.79875C6.7292 8.6186 7.3814 9.2708 8.20125 9.61563C8.25815 9.63936 8.32003 9.6487 8.38141 9.64281C8.44279 9.63692 8.50176 9.61599 8.55312 9.58187L9.52687 8.9325L11.1094 9.72375C11.0554 10.1122 10.8627 10.468 10.5669 10.7256C10.2711 10.9831 9.89219 11.125 9.5 11.125ZM8 1.625C6.89486 1.62477 5.80865 1.91183 4.84793 2.45802C3.8872 3.00421 3.08497 3.79078 2.51992 4.74054C1.95488 5.6903 1.64644 6.77063 1.62487 7.87556C1.6033 8.98048 1.86933 10.072 2.39687 11.0431L1.67062 13.2225C1.61921 13.3767 1.61174 13.5421 1.64907 13.7003C1.6864 13.8585 1.76704 14.0031 1.88196 14.118C1.99688 14.233 2.14153 14.3136 2.29971 14.3509C2.45788 14.3883 2.62332 14.3808 2.7775 14.3294L4.95687 13.6031C5.80999 14.0661 6.75755 14.3281 7.72732 14.3693C8.69708 14.4104 9.66344 14.2296 10.5527 13.8405C11.442 13.4515 12.2306 12.8645 12.8586 12.1244C13.4866 11.3843 13.9372 10.5105 14.1762 9.56975C14.4152 8.62899 14.4363 7.64609 14.2377 6.69597C14.0392 5.74586 13.6263 4.85363 13.0306 4.08731C12.4348 3.321 11.672 2.70083 10.8002 2.27411C9.92837 1.84739 8.97063 1.62538 8 1.625ZM8 13.625C7.0112 13.6252 6.03982 13.3648 5.18375 12.87C5.12666 12.8372 5.06207 12.8198 4.99625 12.8194C4.9559 12.8196 4.91583 12.8261 4.8775 12.8387L2.54062 13.6175C2.5186 13.6248 2.49496 13.6259 2.47237 13.6206C2.44977 13.6152 2.4291 13.6037 2.41269 13.5873C2.39627 13.5709 2.38475 13.5502 2.37942 13.5276C2.37408 13.505 2.37515 13.4814 2.3825 13.4594L3.16125 11.125C3.1781 11.0746 3.18402 11.0211 3.17863 10.9682C3.17325 10.9153 3.15667 10.8641 3.13 10.8181C2.50953 9.74631 2.26013 8.49969 2.42049 7.27166C2.58085 6.04363 3.142 4.90285 4.01689 4.0263C4.89178 3.14975 6.03149 2.58644 7.25921 2.42375C8.48693 2.26106 9.73403 2.50809 10.807 3.12652C11.88 3.74495 12.7189 4.7002 13.1936 5.84408C13.6682 6.98796 13.7521 8.25652 13.4323 9.45294C13.1124 10.6494 12.4066 11.7068 11.4244 12.4611C10.4422 13.2155 9.23845 13.6246 8 13.625Z" fill="black"/>
</svg>
